<svg width="10" height="7" viewBox="0 0 10 7" fill="none" xmlns="http://www.w3.org/2000/svg">
<path d="M9.05062 0.5C9.30123 0.5 9.54166 0.600415 9.7194 0.779313C9.80831 0.868606 9.87888 0.974841 9.92704 1.09189C9.9752 1.20894 10 1.33448 10 1.46129C10 1.58809 9.9752 1.71363 9.92704 1.83068C9.87888 1.94773 9.80831 2.05396 9.7194 2.14326L5.64981 6.21588C5.56162 6.30591 5.4567 6.37736 5.3411 6.42613C5.2255 6.47489 5.10151 6.5 4.97628 6.5C4.85105 6.5 4.72706 6.47489 4.61147 6.42613C4.49587 6.37736 4.39095 6.30591 4.30276 6.21588L0.280601 2.14326C0.191688 2.05396 0.121116 1.94773 0.0729554 1.83068C0.0247951 1.71363 0 1.58809 0 1.46129C0 1.33448 0.0247951 1.20894 0.0729554 1.09189C0.121116 0.974841 0.191688 0.868606 0.280601 0.779313C0.458337 0.600415 0.698767 0.5 0.94938 0.5H9.05062Z" fill="black"/>
</svg>
